<?xml version="1.0" encoding="iso-8859-1"?>
<!-- Generator: Adobe Illustrator 15.1.0, SVG Export Plug-In . SVG Version: 6.00 Build 0)  -->
<!DOCTYPE svg PUBLIC "-//W3C//DTD SVG 1.1//EN" "http://www.w3.org/Graphics/SVG/1.1/DTD/svg11.dtd">
<svg version="1.1" id="Layer_1" xmlns="http://www.w3.org/2000/svg" xmlns:xlink="http://www.w3.org/1999/xlink" x="0px" y="0px"
	 width="595.275px" height="841.89px" viewBox="0 0 595.275 841.89" style="enable-background:new 0 0 595.275 841.89;"
	 xml:space="preserve">
<g id="BIpSQT_1_" style="display:none;">
	
		<image style="display:inline;overflow:visible;" width="59" height="61" id="BIpSQT_2_" xlink:href="9728D571.png"  transform="matrix(1.8951 0 0 1.8951 1.5762 0)">
	</image>
</g>
<g>
	<path d="M40.002,96.695c0-31.312,25.384-56.693,56.692-56.693c31.312,0,56.693,25.381,56.693,56.693
		c0,31.308-25.381,56.693-56.693,56.693C65.387,153.388,40.002,128.003,40.002,96.695z"/>
	<circle style="fill:#FFFFFF;" cx="96.695" cy="96.695" r="32.188"/>
	<circle cx="96.695" cy="96.695" r="12.196"/>
	<rect x="34.333" y="34.333" style="fill:none;stroke:#000000;stroke-miterlimit:10;" width="124.724" height="124.724"/>
</g>
<g>
	<path d="M164.727,96.695c0-31.312,25.384-56.693,56.692-56.693c31.312,0,56.693,25.381,56.693,56.693
		c0,31.308-25.381,56.693-56.693,56.693C190.111,153.388,164.727,128.003,164.727,96.695z"/>
	<circle style="fill:#FFFFFF;" cx="221.419" cy="96.695" r="32.188"/>
	<circle cx="221.419" cy="96.695" r="12.196"/>
	<rect x="159.057" y="34.333" style="fill:none;stroke:#000000;stroke-miterlimit:10;" width="124.724" height="124.724"/>
</g>
<g>
	<path d="M40.002,221.419c0-31.312,25.384-56.693,56.692-56.693c31.312,0,56.693,25.381,56.693,56.693
		c0,31.308-25.381,56.693-56.693,56.693C65.387,278.112,40.002,252.727,40.002,221.419z"/>
	<circle style="fill:#FFFFFF;" cx="96.695" cy="221.419" r="32.188"/>
	<circle cx="96.695" cy="221.419" r="12.196"/>
	<rect x="34.333" y="159.057" style="fill:none;stroke:#000000;stroke-miterlimit:10;" width="124.724" height="124.724"/>
</g>
<g>
	<path d="M164.727,221.419c0-31.312,25.384-56.693,56.692-56.693c31.312,0,56.693,25.381,56.693,56.693
		c0,31.308-25.381,56.693-56.693,56.693C190.111,278.112,164.727,252.727,164.727,221.419z"/>
	<circle style="fill:#FFFFFF;" cx="221.419" cy="221.419" r="32.188"/>
	<circle cx="221.419" cy="221.419" r="12.196"/>
	<rect x="159.057" y="159.057" style="fill:none;stroke:#000000;stroke-miterlimit:10;" width="124.724" height="124.724"/>
</g>
</svg>
